<svg width="36" height="36" viewBox="0 0 36 36" fill="none" xmlns="http://www.w3.org/2000/svg">
<rect width="36" height="36" fill="white"/>
<path d="M24 22.1C23.2 22.1 22.6 22.4 22 22.9L14.9 18.7C15 18.5 15 18.2 15 18C15 17.8 15 17.5 14.9 17.3L22 13.2C22.5 13.7 23.2 14 24 14C25.7 14 27 12.7 27 11C27 9.3 25.7 8 24 8C22.3 8 21 9.3 21 11C21 11.2 21 11.5 21.1 11.7L14 15.8C13.5 15.3 12.8 15 12 15C10.3 15 9 16.3 9 18C9 19.7 10.3 21 12 21C12.8 21 13.5 20.7 14 20.2L21.1 24.4C21 24.6 21 24.8 21 25C21 26.6 22.3 27.9 23.9 27.9C25.5 27.9 26.8 26.6 26.8 25C26.8 23.4 25.6 22.1 24 22.1Z" fill="black"/>
</svg>
